<?xml version="1.0" encoding="utf-8"?>
<!-- Generator: Adobe Illustrator 19.2.0, SVG Export Plug-In . SVG Version: 6.00 Build 0)  -->
<svg version="1.1" id="Слой_1" xmlns="http://www.w3.org/2000/svg" xmlns:xlink="http://www.w3.org/1999/xlink" x="0px" y="0px"
	 viewBox="0 0 127.9 75.8" style="enable-background:new 0 0 127.9 75.8;" xml:space="preserve" >
<style type="text/css">
	.st0{fill:none;}
	.st1{fill:#000;}
</style>
<g>
	<path class="st0" d="M127.6,71.6h-11.8V4.9c0-1.9-1.5-3.4-3.4-3.4H15.4C13.5,1.4,12,3,12,4.9v66.8H0.4v1.1l0,0v0
		c0.1,0,7.9,1.8,12.6,1.8H115c4.6,0,12.5-1.8,12.6-1.8l0,0h0V71.6z"/>
	<path class="st1" d="M127.6,71.6h-11.8V4.9c0-1.9-1.5-3.4-3.4-3.4H15.4C13.5,1.4,12,3,12,4.9v66.8H0.4v1.1l0,0v0
		c0.1,0,7.9,1.8,12.6,1.8H115c4.6,0,12.5-1.8,12.6-1.8l0,0h0V71.6z M127.3,71.9v0.6H76.2v-0.6h39.6H127.3z M52,71.9h23.9v0.6
		c-0.1,0-0.4,0.2-1.7,0.2H53.7c-1.3,0-1.7-0.1-1.7-0.2V71.9z M12.3,4.9c0-1.8,1.4-3.2,3.2-3.2h96.9c1.8,0,3.2,1.4,3.2,3.2v66.8H12.3
		V4.9z M0.6,71.9H12h39.8v0.6H0.6V71.9z M115,74.3H12.9c-3.5,0-9-1.1-11.3-1.6h50.4v0c0.2,0.1,0.7,0.2,1.8,0.2l0,0h0h20.4h0l0,0
		c1.1,0,1.6-0.1,1.8-0.2h50.4C124,73.3,118.5,74.3,115,74.3z"/>
	<path class="st1" d="M15.9,66.1H112V5.7H15.9V66.1z M16.2,6h95.6v59.8H16.2V6z"/>
	<path class="st1" d="M64,4.2c0.3,0,0.5-0.2,0.5-0.5c0-0.3-0.2-0.5-0.5-0.5c-0.3,0-0.5,0.2-0.5,0.5C63.5,4,63.7,4.2,64,4.2z M64,3.4
		c0.2,0,0.3,0.1,0.3,0.3C64.2,3.8,64.1,4,64,4c-0.2,0-0.3-0.1-0.3-0.3C63.7,3.5,63.8,3.4,64,3.4z"/>
</g>
</svg>
